<svg width="45" height="45" viewBox="0 0 45 45" fill="none" xmlns="http://www.w3.org/2000/svg">
<path d="M1.25 21.25L11.25 12.5L31.25 13.75L32.5 33.75L23.75 43.75C23.75 43.75 23.7512 36.2512 16.25 28.75C8.74875 21.2487 1.25 21.25 1.25 21.25Z" fill="#A0041E"/>
<path d="M1.21584 43.75C1.21584 43.75 1.17084 33.7763 4.94709 30C8.72335 26.2238 18.7496 26.4838 18.7496 26.4838C18.7496 26.4838 18.7483 36.25 14.9983 40C11.2483 43.75 1.21584 43.75 1.21584 43.75Z" fill="#FFAC33"/>
<path d="M11.249 38.75C14.0104 38.75 16.249 36.5114 16.249 33.75C16.249 30.9886 14.0104 28.75 11.249 28.75C8.4876 28.75 6.24902 30.9886 6.24902 33.75C6.24902 36.5114 8.4876 38.75 11.249 38.75Z" fill="#FFCC4D"/>
<path d="M44.9991 0C44.9991 0 32.4991 0 17.4991 12.5C9.9991 18.75 9.9991 30 12.4991 32.5C14.9991 35 26.2491 35 32.4991 27.5C44.9991 12.5 44.9991 0 44.9991 0Z" fill="#55ACEE"/>
<path d="M33.7488 6.25C32.7867 6.25177 31.8457 6.53102 31.0384 7.05428C30.2311 7.57753 29.5919 8.32256 29.1975 9.2C29.8417 8.90648 30.5409 8.7531 31.2488 8.75C32.5748 8.75 33.8466 9.27678 34.7843 10.2145C35.722 11.1521 36.2488 12.4239 36.2488 13.75C36.2488 14.4825 36.0825 15.1738 35.8 15.8C36.678 15.4068 37.4235 14.768 37.9467 13.9607C38.4699 13.1534 38.7484 12.212 38.7488 11.25C38.7488 9.92392 38.222 8.65215 37.2843 7.71447C36.3466 6.77678 35.0748 6.25 33.7488 6.25Z" fill="black"/>
<path d="M10 35C10 35 10 30 11.25 28.75C12.5 27.5 27.5012 15.0013 28.75 16.25C29.9987 17.4988 17.4987 32.5 16.2487 33.75C14.9987 35 10 35 10 35Z" fill="#A0041E"/>
</svg>
