<svg width="45" height="45" viewBox="0 0 45 45" fill="none" xmlns="http://www.w3.org/2000/svg">
<path d="M16.0397 8.65682C8.62171 7.74276 5.97656 11.4693 4.70249 13.1835C1.23046 18.3023 3.31734 23.9273 5.84437 26.6315C5.84437 26.6315 20.0391 40.4521 20.4342 40.8248C20.8294 41.1974 21.7645 42.4729 24.0159 42.1101C25.9819 41.7937 26.543 39.4185 26.543 39.4185C26.543 39.4185 27.9942 40.6026 30.0811 39.4185C31.7067 38.496 31.6406 36.651 31.6406 36.651C31.6406 36.651 33.3816 37.5229 35.2448 35.9479C36.9211 34.5276 35.8819 32.0357 35.8819 32.0357C35.8819 32.0357 37.3866 32.2832 38.4525 31.1132C39.8939 29.5312 39.3975 27.5315 38.4525 26.6315L27.5976 14.7656L26.7623 10.371L16.0397 8.65682Z" fill="#FFC83D"/>
<path d="M37.5566 31.7713L34.4263 28.5974C34.3614 28.5317 34.2842 28.4794 34.199 28.4435C34.1139 28.4076 34.0225 28.3888 33.9302 28.3882C33.8378 28.3876 33.7462 28.4052 33.6606 28.44C33.575 28.4748 33.4971 28.5262 33.4314 28.5911C33.3656 28.656 33.3133 28.7332 33.2774 28.8184C33.2415 28.9035 33.2228 28.9949 33.2222 29.0872C33.2216 29.1796 33.2392 29.2712 33.274 29.3568C33.3088 29.4424 33.3601 29.5203 33.4251 29.586L35.9057 32.1004L35.8818 32.0357C35.8818 32.0357 36.7002 32.1707 37.5566 31.7713ZM33.719 36.7734L30.4705 33.1691C30.3456 33.0306 30.1707 32.9473 29.9844 32.9377C29.7981 32.9281 29.6156 32.9929 29.477 33.1178C29.3385 33.2428 29.2552 33.4176 29.2456 33.6039C29.236 33.7903 29.3007 33.9728 29.4257 34.1113L31.7601 36.7002C32.0399 36.8071 32.7866 37.0251 33.719 36.7734ZM28.9349 39.8685L26.3952 37.1784C26.3318 37.1112 26.2557 37.0573 26.1715 37.0195C26.0872 36.9818 25.9963 36.961 25.9039 36.9584C25.8116 36.9558 25.7197 36.9714 25.6334 37.0043C25.5471 37.0372 25.4681 37.0868 25.401 37.1502C25.3339 37.2137 25.2799 37.2897 25.2422 37.374C25.2044 37.4583 25.1836 37.5492 25.181 37.6415C25.1784 37.7338 25.194 37.8258 25.2269 37.9121C25.2598 37.9984 25.3094 38.0773 25.3729 38.1444L26.6441 39.4902C26.924 39.673 27.7621 40.123 28.9349 39.8685ZM25.8791 40.8571C24.8118 41.1412 22.8318 41.2298 21.4677 39.7701L20.3765 40.7685L20.4341 40.8248C20.4754 40.8641 20.5222 40.911 20.5747 40.9654C21.036 41.4435 21.9951 42.4363 24.0158 42.1101C24.8905 41.9694 25.4868 41.421 25.8791 40.8557" fill="#D67D00"/>
<path d="M8.96495 9.58071C6.59261 12.6267 2.93636 20.5143 9.40511 25.9284L7.36886 28.1151L5.84448 26.6315C3.31886 23.9287 1.23058 18.3037 4.70261 13.1835L4.75886 13.1062C5.49714 12.1134 6.67979 10.5201 8.90729 9.49634L8.96495 9.58071Z" fill="#F59F00"/>
<path d="M24.2577 33.3112C25.9494 35.2659 23.8358 37.7577 22.8515 38.804L7.97192 23.3212C10.7479 20.5059 12.5816 20.2232 13.8219 21.4452C15.0594 22.6673 14.48 23.5321 14.48 23.5321C14.48 23.5321 16.1591 22.5787 17.9296 24.3238C19.7015 26.069 18.478 27.3993 18.478 27.3993C18.478 27.3993 20.3061 27.0702 21.5999 28.5201C23.0483 30.1471 22.1258 32.0357 22.1258 32.0357C22.1258 32.0357 23.2368 32.1313 24.2577 33.3112Z" fill="#D67D00"/>
<path d="M17.491 11.25C22.0389 9.42605 28.9379 8.50355 32.102 8.45996C34.2549 8.45996 36.9971 8.98027 39.9024 12.3932C44.5431 17.8411 41.0668 24.0595 38.3204 26.5865V24.6093C38.3204 24.6093 27.7651 15.4181 27.422 15.0946C26.7892 14.497 24.1848 14.6784 23.9064 14.7656C23.057 15.03 21.586 15.4687 19.6876 16.1718C18.1435 16.7442 16.9187 16.2815 16.4139 15.0946C15.9076 13.9092 15.2312 12.1556 17.491 11.25Z" fill="#FFC83D"/>
<path d="M39.811 24.9046C39.3687 25.5113 38.8696 26.0745 38.3204 26.5865C34.4391 23.203 26.5388 16.2857 25.906 15.688C25.2732 15.0904 24.5363 15.1171 24.2579 15.2043C22.6045 15.7227 20.9634 16.2797 19.336 16.8749C17.792 17.4473 16.2381 16.2815 15.7332 15.0946C15.2691 14.0104 15.2326 12.4523 16.9566 11.5002L17.8454 11.1107L17.9157 11.084C15.1693 13.1484 17.5951 15.6712 19.8634 15.3815C20.6607 15.2788 21.9727 15.0074 23.2468 14.6784C23.7531 14.5462 24.2495 14.3141 24.7177 14.0962C25.5966 13.6841 26.3771 13.3199 26.9396 13.7545C29.049 15.3927 35.3434 20.7407 39.8124 24.9046" fill="#D67D00"/>
<path d="M12.403 23.7361C12.1545 23.414 11.8449 23.144 11.492 22.9416C11.1391 22.7392 10.7498 22.6082 10.3463 22.5563C9.94281 22.5043 9.53302 22.5323 9.14035 22.6387C8.74767 22.7451 8.3798 22.9278 8.05774 23.1764L5.36055 25.4531C4.11883 26.4867 3.7968 28.4203 4.70383 29.6747C5.52508 30.8109 6.78508 31.2806 7.94242 30.9515C7.42914 32.1257 7.47274 33.6276 8.45852 34.4531C9.37961 35.2223 10.5173 35.7497 11.6577 35.3939C11.548 36.1462 11.7702 36.9703 12.5437 37.7915C13.2749 38.5664 14.338 38.9531 15.4785 38.6957C15.328 39.5001 15.5826 40.3945 16.5234 41.3015C17.6751 42.4125 19.4484 42.5081 21.1148 40.9781L22.2004 39.7125C23.0723 38.6156 24.2788 36.7087 22.476 35.0887C21.853 34.529 21.1373 34.2182 20.3934 34.2168C20.797 33.2325 20.7899 32.0259 19.6199 30.87C18.8887 30.1486 17.9929 29.835 17.0043 30.0712C17.5387 28.935 17.526 27.7748 16.4559 26.7173C15.4841 25.7568 14.286 25.3012 12.7391 26.1689C13.012 25.3307 12.9473 24.442 12.4016 23.7347" fill="#FFC83D"/>
<path d="M12.7042 24.2466L6.06104 30.8067C6.64885 31.0683 7.28869 31.1288 7.90322 30.9642L12.7815 26.1464L12.7407 26.1689C12.9517 25.5235 12.9601 24.8471 12.7042 24.2466ZM17.221 27.8803L9.7876 35.2758C10.3853 35.5163 11.0223 35.5936 11.6607 35.3953L17.0143 30.0713L17.0073 30.0727C17.3518 29.3414 17.4671 28.5989 17.221 27.8803ZM20.4934 32.1989L13.5774 38.5242C14.1456 38.7731 14.7938 38.8491 15.4688 38.7L20.409 34.1817C20.6481 33.5813 20.7324 32.8992 20.4934 32.1989Z" fill="#D67D00"/>
</svg>
