<svg width="45" height="45" viewBox="0 0 45 45" fill="none" xmlns="http://www.w3.org/2000/svg">
<path d="M24.8217 31.3171H19.3514C18.2405 31.3171 17.3264 32.2171 17.3405 33.3281V38.7984C17.3405 39.9093 18.2405 40.8093 19.3514 40.8093H19.7002C19.9373 41.232 20.2827 41.5839 20.7009 41.8288C21.119 42.0737 21.5949 42.2028 22.0796 42.2028C22.5642 42.2028 23.0401 42.0737 23.4583 41.8288C23.8764 41.5839 24.2218 41.232 24.4589 40.8093H24.8217C25.9327 40.8093 26.8327 39.9093 26.8327 38.7984V33.3281C26.8327 32.2171 25.9327 31.3171 24.8217 31.3171Z" fill="#9B9B9B"/>
<path d="M25.5388 32.5266C25.8763 32.5266 26.1435 32.2734 26.1716 31.95C26.2701 30.7406 26.7904 27.8016 29.631 24.6516C30.9867 23.5846 32.1002 22.2418 32.8978 20.712C33.6954 19.1823 34.1589 17.5005 34.2576 15.7781C34.2857 15.4406 34.2998 15.2156 34.2998 15.075V14.9344C34.2154 8.2125 28.7732 2.8125 22.0654 2.8125C18.8462 2.81233 15.7569 4.08243 13.4688 6.34688C11.1806 8.61134 9.87841 11.6872 9.84507 14.9063C9.84507 14.9063 9.83101 15.2437 9.88726 15.8062C10.1123 19.3781 11.856 22.5422 14.5138 24.6375C17.3544 27.8016 17.9169 30.7406 18.0154 31.95C18.0435 32.2734 18.3107 32.5266 18.6482 32.5266H25.5388Z" fill="#FCD53F"/>
<path d="M22.0794 15.0469C24.3576 15.0469 26.2138 16.8891 26.2419 19.1672V19.2797C26.2419 19.3219 26.2419 19.3781 26.2279 19.4625C26.1576 20.6438 25.581 21.7547 24.6529 22.4859L24.5544 22.5563L24.4701 22.6406C22.9232 24.3563 22.5997 28.7156 22.5435 31.1063H21.6294C21.5591 28.7156 21.2216 24.3563 19.6748 22.6406L19.5904 22.5563L19.4919 22.4859C19.0274 22.1186 18.6467 21.6564 18.3751 21.1301C18.1035 20.6039 17.9473 20.0258 17.9169 19.4344C17.9169 19.3781 17.9029 19.3359 17.9029 19.3078V19.1813C17.9451 16.9031 19.8154 15.0469 22.0794 15.0469ZM22.0794 13.6406C20.9223 13.641 19.7939 14.0019 18.8513 14.6732C17.9087 15.3444 17.1986 16.2926 16.8197 17.386C16.4408 18.4794 16.4119 19.6637 16.7371 20.7742C17.0623 21.8848 17.7253 22.8665 18.6341 23.5828C20.3216 25.4672 20.2372 32.5266 20.2372 32.5266H23.9497C23.9497 32.5266 23.8372 25.4672 25.5388 23.5969C26.7482 22.6406 27.5497 21.1922 27.6482 19.5469C27.6622 19.3922 27.6622 19.2938 27.6622 19.2234V19.1672C27.6474 17.6963 27.0527 16.2907 26.0073 15.2559C24.9619 14.221 23.5504 13.6406 22.0794 13.6406Z" fill="#FFB02E"/>
<path d="M26.9534 35.2308C27.0445 35.2149 27.1315 35.1812 27.2096 35.1317C27.2876 35.0822 27.3551 35.0178 27.4083 34.9422C27.4614 34.8666 27.4991 34.7813 27.5193 34.6911C27.5395 34.6009 27.5417 34.5076 27.5258 34.4166C27.5099 34.3255 27.4763 34.2385 27.4267 34.1605C27.3772 34.0824 27.3128 34.0149 27.2372 33.9618C27.1616 33.9086 27.0763 33.8709 26.9861 33.8507C26.8959 33.8305 26.8026 33.8283 26.7116 33.8442L17.2334 35.5036C17.1424 35.5195 17.0554 35.5531 16.9773 35.6026C16.8993 35.6522 16.8318 35.7166 16.7786 35.7922C16.7255 35.8678 16.6878 35.9531 16.6676 36.0433C16.6474 36.1335 16.6452 36.2268 16.6611 36.3178C16.677 36.4088 16.7106 36.4959 16.7602 36.5739C16.8097 36.6519 16.8741 36.7195 16.9497 36.7726C17.0253 36.8258 17.1106 36.8635 17.2008 36.8837C17.291 36.9038 17.3843 36.906 17.4753 36.8901L26.9534 35.2308ZM26.8831 38.2542C27.0647 38.2199 27.2255 38.1155 27.3307 37.9636C27.4359 37.8116 27.4771 37.6244 27.4453 37.4424C27.4135 37.2603 27.3113 37.0981 27.1608 36.9908C27.0104 36.8835 26.8237 36.8398 26.6413 36.8691L17.2897 38.5144C17.1957 38.5268 17.1051 38.5581 17.0235 38.6065C16.9419 38.6548 16.8709 38.7192 16.8148 38.7957C16.7587 38.8722 16.7187 38.9592 16.6971 39.0516C16.6756 39.144 16.6729 39.2398 16.6893 39.3332C16.7058 39.4266 16.7409 39.5157 16.7927 39.5952C16.8445 39.6747 16.9118 39.7429 16.9906 39.7957C17.0694 39.8484 17.1581 39.8847 17.2513 39.9023C17.3445 39.9199 17.4403 39.9185 17.533 39.8981L26.8831 38.2542Z" fill="#D3D3D3"/>
<path d="M19.3934 7.65003C17.8325 10.35 18.62 13.725 21.1513 15.1735C23.6825 16.6219 26.9872 15.6235 28.5481 12.9235C30.1091 10.2235 29.3216 6.84846 26.7903 5.40003C24.2591 3.95159 20.9544 4.95003 19.3934 7.65003Z" fill="#FFF478"/>
</svg>
