<svg width="42" height="42" viewBox="0 0 42 42" fill="none" xmlns="http://www.w3.org/2000/svg">
<path d="M36.9469 21.9188L36.1594 10.0406L30.7125 13.3875C28.0219 12.9281 27.3 12.9281 25.2 11.9438C23.9531 11.3531 22.3781 11.7469 21.5906 12.2063C20.4094 10.9594 12.7312 12.7969 11.8781 13.1906C9.58124 12.4688 6.16874 9.84375 6.16874 9.84375L4.98749 23.2313L6.56249 23.625C6.69374 24.0844 7.08749 25.2 7.08749 25.2C5.64374 27.0375 7.34999 29.2031 8.99061 28.4813C8.26874 30.3188 10.1719 32.025 11.6812 30.8438C11.4844 32.55 13.2562 33.7969 14.5687 32.6156C13.9781 34.65 16.275 36.1594 17.6531 34.5188C18.6375 35.175 19.5562 35.7 20.3437 35.9625C21.7219 36.5531 23.2312 35.2406 22.9687 33.6C24.5437 35.4375 26.9062 33.6656 26.3812 31.6313C28.1531 33.0094 30.3187 30.7125 29.2031 28.6781C31.1719 29.7938 32.8781 26.775 30.975 24.8063L36.9469 21.9188Z" fill="#FFDD67"/>
<path d="M9.12148 23.8217C10.1059 24.2811 10.7621 25.7905 9.71211 27.103L9.25273 27.628C8.72773 28.2842 8.20273 28.4811 7.67773 28.4811C8.07148 28.678 8.53086 28.678 8.99023 28.4811C9.05586 28.2842 9.18711 28.0217 9.38398 27.8249L9.84336 27.2999C10.1059 26.9717 10.434 26.7092 10.6965 26.578C11.2215 25.1999 10.3027 23.8874 9.12148 23.8217ZM16.6027 30.3186C17.6527 30.5811 18.4402 31.9592 17.6527 33.4686L17.259 34.0592C16.8652 34.7811 16.3402 35.1092 15.8152 35.1749C16.5371 35.3717 17.3246 35.1092 17.8496 34.1249L18.2434 33.5342C19.2277 31.6967 17.9809 30.1874 16.6027 30.3186ZM12.009 29.7936L13.059 28.153C12.9934 27.2342 12.2059 26.4467 11.4184 26.3811C12.4027 26.8405 13.059 28.3499 12.009 29.6624L11.5496 30.1874C11.0246 30.8436 10.4996 31.0405 9.90898 31.0405C10.434 31.303 11.0246 31.2374 11.6152 30.8436C11.6809 30.5155 11.8121 30.1217 12.009 29.7936ZM14.8309 26.8405C15.8809 27.1686 16.6027 28.6124 15.684 30.0561L14.4371 32.0249C13.9777 32.7467 13.4527 33.0092 12.9277 33.0092C13.584 33.2061 14.4371 33.0092 15.0277 32.0905L16.2746 30.1217C17.3246 28.4155 16.1434 26.7749 14.8309 26.8405ZM23.559 28.4811C23.6246 28.4811 24.4121 28.3499 24.6746 28.3499C23.6902 27.3655 22.1152 28.153 21.1965 27.628C21.8527 28.7436 23.2309 28.4811 23.3621 28.4811L24.9371 30.5155C26.2496 32.1561 25.1996 34.0592 23.8215 34.2561C25.2652 34.7155 26.709 33.2061 26.2496 31.5655C26.184 31.4999 23.559 28.4811 23.559 28.4811ZM25.134 24.6749C25.134 24.6749 26.1184 24.478 26.9715 24.478C25.9871 23.6905 24.4777 24.4124 23.4934 23.7561C23.8871 24.6092 24.7402 24.6092 25.0027 24.6749L28.0215 28.153C29.3996 29.728 28.4152 31.6311 27.0371 31.9592C28.6121 32.4186 30.1215 30.3842 29.1371 28.6124C28.4809 28.3499 25.134 24.6749 25.134 24.6749Z" fill="#EBA352"/>
<path d="M23.0344 32.2218C22.05 31.4343 20.6719 32.0249 20.0813 31.6312C20.4094 32.5499 21.6563 32.353 21.7219 32.353C22.8375 34.0593 21.6563 35.8312 20.2781 35.9624C21.6563 36.553 23.1656 35.2405 22.9031 33.5999C22.8375 33.5343 21.9188 32.353 21.9188 32.353C22.05 32.2874 22.7719 32.2218 23.0344 32.2218ZM36.225 20.803C36.225 20.803 35.1094 23.0999 30.7781 24.3468C30.1875 23.6249 28.9406 22.1812 27.4969 20.9343C28.4156 20.7374 28.875 20.0155 29.5969 19.8843C29.3344 19.6218 28.4156 19.753 27.6938 20.0155C26.3813 20.4749 23.3625 18.3749 23.3625 18.3749L20.8688 18.703C19.0969 20.4093 15.2906 21.328 15.0938 18.703C14.9625 16.8655 18.9656 15.6187 20.2125 14.4374C21.7875 12.928 23.1656 11.0249 25.725 12.3374C27.825 13.3874 28.6781 13.3218 31.5656 13.8468C32.55 14.0437 33.2063 14.503 33.9281 15.4874C33.3375 14.1093 32.4844 13.5187 31.4344 13.3218L36.0281 11.1562L36.0938 10.0405L30.6469 13.1249C28.1531 12.7312 27.2344 12.7312 25.2 11.7468C23.8875 11.0905 22.8375 11.2874 21.9844 11.8124C20.4094 10.8937 19.4906 11.0905 18.9 11.2218C17.0625 11.8124 14.1094 11.878 11.4844 12.928C11.9438 13.0593 12.4031 13.1905 12.7312 13.1905C15.2906 12.403 17.9813 12.4687 19.2281 12.0093C19.6219 11.878 20.4094 11.878 21.2625 12.3374C20.7375 12.7968 20.2781 13.3218 19.7531 13.8468C18.5063 15.028 14.7 16.7343 14.9625 18.8999C15.0938 19.9499 16.5375 22.7062 21.3281 19.6218L23.3625 19.3593C23.3625 19.3593 27.1031 21.1312 30.5813 25.1999C31.9594 26.7749 31.1063 28.4812 29.7281 28.8749C31.5 29.203 33.0094 26.7093 31.3031 25.003L35.4375 22.7718L36.225 20.803Z" fill="#EBA352"/>
<path d="M35.0434 10.6968L37.209 21.9187L35.4371 22.7062C34.5184 20.278 33.1403 14.4374 33.4684 11.6155L35.0434 10.6968Z" fill="#3B946F"/>
<path d="M7.28436 24.9375C6.95624 24.15 6.75936 23.1 6.75936 23.1L5.11874 21.9844L4.98749 23.2313L6.43124 23.625C6.62811 24.2812 6.82499 24.8063 7.08749 25.2L7.28436 24.9375Z" fill="#EBA352"/>
<path d="M4.00311 23.0343L7.54686 10.7625L9.18749 11.8781C9.44999 13.7156 6.43124 22.1156 5.31561 23.3624L4.00311 23.0343Z" fill="#3B946F"/>
<path d="M34.9781 10.6312C34.4531 10.9594 36.3562 22.3125 37.1437 21.9844C39.6375 20.8687 40.7531 20.5406 40.7531 20.5406V7.02187C40.6875 7.02187 39.1781 8.1375 34.9781 10.6312ZM1.3125 5.90625V22.6406C1.3125 22.6406 2.49375 22.8375 4.00312 23.1656C4.85625 23.3625 7.94062 11.025 7.74375 10.8281C5.5125 9.31875 1.3125 5.90625 1.3125 5.90625Z" fill="#47B892"/>
</svg>
