<svg width="42" height="42" viewBox="0 0 42 42" fill="none" xmlns="http://www.w3.org/2000/svg">
<path d="M23.167 29.2295H18.0613C17.0245 29.2295 16.1714 30.0695 16.1845 31.1064V36.212C16.1845 37.2489 17.0245 38.0889 18.0613 38.0889H18.3868C18.6081 38.4834 18.9305 38.8118 19.3208 39.0404C19.7111 39.269 20.1553 39.3895 20.6076 39.3895C21.0599 39.3895 21.5041 39.269 21.8944 39.0404C22.2847 38.8118 22.6071 38.4834 22.8283 38.0889H23.167C24.2038 38.0889 25.0438 37.2489 25.0438 36.212V31.1064C25.0438 30.0695 24.2038 29.2295 23.167 29.2295Z" fill="#9B9B9B"/>
<path d="M23.8363 30.3581C24.1513 30.3581 24.4007 30.1219 24.427 29.82C24.5188 28.6912 25.0045 25.9481 27.6557 23.0081C28.921 22.0123 29.9603 20.759 30.7048 19.3312C31.4492 17.9034 31.8818 16.3338 31.9738 14.7263C32.0001 14.4113 32.0132 14.2013 32.0132 14.07V13.9388C31.9345 7.665 26.8551 2.625 20.5945 2.625C17.5899 2.62484 14.7066 3.81027 12.5709 5.92376C10.4353 8.03725 9.21995 10.9081 9.18884 13.9125C9.18884 13.9125 9.17571 14.2275 9.22821 14.7525C9.43821 18.0862 11.0657 21.0394 13.5463 22.995C16.1976 25.9481 16.7226 28.6912 16.8145 29.82C16.8407 30.1219 17.0901 30.3581 17.4051 30.3581H23.8363Z" fill="#FCD53F"/>
<path d="M20.6076 14.0439C22.7339 14.0439 24.4664 15.7633 24.4926 17.8896V17.9946C24.4926 18.0339 24.4926 18.0864 24.4795 18.1652C24.4139 19.2677 23.8757 20.3046 23.0095 20.9871L22.9176 21.0527L22.8389 21.1314C21.3951 22.7327 21.0932 26.8014 21.0407 29.0327H20.1876C20.122 26.8014 19.807 22.7327 18.3632 21.1314L18.2845 21.0527L18.1926 20.9871C17.7591 20.6442 17.4037 20.2128 17.1502 19.7217C16.8967 19.2305 16.7509 18.6909 16.7226 18.1389C16.7226 18.0864 16.7095 18.0471 16.7095 18.0208V17.9027C16.7489 15.7764 18.4945 14.0439 20.6076 14.0439ZM20.6076 12.7314C19.5276 12.7318 18.4745 13.0687 17.5947 13.6951C16.7149 14.3216 16.0521 15.2066 15.6985 16.2271C15.3449 17.2476 15.3179 18.3529 15.6214 19.3895C15.9249 20.426 16.5438 21.3422 17.392 22.0108C18.967 23.7696 18.8882 30.3583 18.8882 30.3583H22.3532C22.3532 30.3583 22.2482 23.7696 23.8364 22.0239C24.9651 21.1314 25.7132 19.7796 25.8051 18.2439C25.8182 18.0996 25.8182 18.0077 25.8182 17.9421V17.8896C25.8044 16.5167 25.2493 15.2049 24.2736 14.239C23.298 13.2731 21.9805 12.7314 20.6076 12.7314Z" fill="#FFB02E"/>
<path d="M25.1567 32.882C25.2417 32.8672 25.3229 32.8358 25.3958 32.7896C25.4686 32.7434 25.5316 32.6833 25.5812 32.6127C25.6308 32.5421 25.666 32.4625 25.6849 32.3783C25.7037 32.2941 25.7057 32.2071 25.6909 32.1221C25.6761 32.0371 25.6447 31.9559 25.5985 31.8831C25.5523 31.8102 25.4922 31.7472 25.4216 31.6976C25.351 31.648 25.2714 31.6128 25.1872 31.594C25.103 31.5751 25.016 31.5731 24.931 31.5879L16.0847 33.1366C15.9998 33.1515 15.9185 33.1829 15.8457 33.2291C15.7729 33.2753 15.7099 33.3354 15.6602 33.406C15.6106 33.4765 15.5754 33.5562 15.5566 33.6404C15.5378 33.7246 15.5357 33.8116 15.5505 33.8966C15.5654 33.9816 15.5968 34.0628 15.643 34.1356C15.6892 34.2084 15.7493 34.2715 15.8199 34.3211C15.8904 34.3707 15.9701 34.4059 16.0543 34.4247C16.1384 34.4435 16.2255 34.4456 16.3105 34.4308L25.1567 32.882ZM25.0911 35.7039C25.2606 35.6719 25.4107 35.5744 25.5088 35.4326C25.607 35.2908 25.6454 35.1161 25.6158 34.9462C25.5861 34.7763 25.4907 34.6249 25.3503 34.5247C25.2099 34.4246 25.0357 34.3838 24.8654 34.4111L16.1372 35.9467C16.0495 35.9583 15.9649 35.9876 15.8888 36.0327C15.8126 36.0778 15.7463 36.1379 15.694 36.2093C15.6416 36.2807 15.6043 36.3619 15.5842 36.4481C15.564 36.5343 15.5616 36.6237 15.5769 36.7109C15.5922 36.7981 15.625 36.8813 15.6734 36.9555C15.7217 37.0297 15.7845 37.0933 15.8581 37.1426C15.9316 37.1918 16.0144 37.2257 16.1014 37.2421C16.1884 37.2586 16.2778 37.2572 16.3643 37.2382L25.0911 35.7039Z" fill="#D3D3D3"/>
<path d="M18.1007 7.13997C16.6438 9.65997 17.3788 12.81 19.7413 14.1618C22.1038 15.5137 25.1882 14.5818 26.6451 12.0618C28.102 9.54185 27.367 6.39185 25.0045 5.03997C22.642 3.6881 19.5576 4.61998 18.1007 7.13997Z" fill="#FFF478"/>
</svg>
