<svg width="42" height="42" viewBox="0 0 42 42" fill="none" xmlns="http://www.w3.org/2000/svg">
<path d="M25.5281 27.9914L28.0026 25.5178L38.5193 36.0344L36.0448 38.5081L25.5281 27.9914Z" fill="white"/>
<path d="M17.5 31.5002C25.232 31.5002 31.5 25.2322 31.5 17.5002C31.5 9.76826 25.232 3.50024 17.5 3.50024C9.76801 3.50024 3.5 9.76826 3.5 17.5002C3.5 25.2322 9.76801 31.5002 17.5 31.5002Z" fill="white"/>
<path d="M28.3937 30.9227L30.8674 28.4482L38.4764 36.0572L36.0019 38.5317L28.3937 30.9227Z" fill="#C2C2C2"/>
<path d="M17.5 28.8752C23.7822 28.8752 28.875 23.7825 28.875 17.5002C28.875 11.218 23.7822 6.12524 17.5 6.12524C11.2178 6.12524 6.125 11.218 6.125 17.5002C6.125 23.7825 11.2178 28.8752 17.5 28.8752Z" fill="#64B5F6"/>
<path d="M23.5371 12.4252C22.0496 10.6752 19.8621 9.62524 17.4996 9.62524C15.1371 9.62524 12.9496 10.6752 11.4621 12.4252C11.1121 12.7752 11.1996 13.3877 11.5496 13.6502C11.8996 14.0002 12.5121 13.9127 12.7746 13.5627C13.9996 12.1627 15.6621 11.3752 17.4996 11.3752C19.3371 11.3752 20.9996 12.1627 22.2246 13.5627C22.3996 13.7377 22.6621 13.9127 22.9246 13.9127C23.0996 13.9127 23.3621 13.8252 23.4496 13.7377C23.7996 13.3877 23.7996 12.7752 23.5371 12.4252Z" fill="#BBDEFB"/>
</svg>
