<svg width="42" height="42" viewBox="0 0 42 42" fill="none" xmlns="http://www.w3.org/2000/svg">
<path d="M8.40039 9.46299C8.40039 8.62756 8.73226 7.82634 9.323 7.2356C9.91374 6.64486 10.715 6.31299 11.5504 6.31299H30.4504C31.2858 6.31299 32.087 6.64486 32.6778 7.2356C33.2685 7.82634 33.6004 8.62756 33.6004 9.46299V34.663C33.6004 35.4984 33.2685 36.2996 32.6778 36.8904C32.087 37.4811 31.2858 37.813 30.4504 37.813H11.5504C10.715 37.813 9.91374 37.4811 9.323 36.8904C8.73226 36.2996 8.40039 35.4984 8.40039 34.663V9.46299Z" fill="url(#paint0_linear_101_450)"/>
<path d="M8.40039 9.46299C8.40039 8.62756 8.73226 7.82634 9.323 7.2356C9.91374 6.64486 10.715 6.31299 11.5504 6.31299H30.4504C31.2858 6.31299 32.087 6.64486 32.6778 7.2356C33.2685 7.82634 33.6004 8.62756 33.6004 9.46299V34.663C33.6004 35.4984 33.2685 36.2996 32.6778 36.8904C32.087 37.4811 31.2858 37.813 30.4504 37.813H11.5504C10.715 37.813 9.91374 37.4811 9.323 36.8904C8.73226 36.2996 8.40039 35.4984 8.40039 34.663V9.46299Z" fill="url(#paint1_radial_101_450)" fill-opacity="0.7"/>
<path d="M8.40039 9.46299C8.40039 8.62756 8.73226 7.82634 9.323 7.2356C9.91374 6.64486 10.715 6.31299 11.5504 6.31299H30.4504C31.2858 6.31299 32.087 6.64486 32.6778 7.2356C33.2685 7.82634 33.6004 8.62756 33.6004 9.46299V34.663C33.6004 35.4984 33.2685 36.2996 32.6778 36.8904C32.087 37.4811 31.2858 37.813 30.4504 37.813H11.5504C10.715 37.813 9.91374 37.4811 9.323 36.8904C8.73226 36.2996 8.40039 35.4984 8.40039 34.663V9.46299Z" fill="url(#paint2_radial_101_450)" fill-opacity="0.4"/>
<path d="M14.7004 7.3502C14.7004 8.18563 15.0323 8.98684 15.623 9.57758C16.2137 10.1683 17.0149 10.5002 17.8504 10.5002H24.1504C24.9858 10.5002 25.787 10.1683 26.3778 9.57758C26.9685 8.98684 27.3004 8.18563 27.3004 7.3502C27.3004 6.51476 26.9685 5.71355 26.3778 5.12281C25.787 4.53207 24.9858 4.2002 24.1504 4.2002H17.8504C17.0149 4.2002 16.2137 4.53207 15.623 5.12281C15.0323 5.71355 14.7004 6.51476 14.7004 7.3502Z" fill="url(#paint3_linear_101_450)"/>
<path d="M26.9938 20.6937C27.1909 20.4965 27.3017 20.2291 27.3017 19.9503C27.3017 19.6714 27.1909 19.404 26.9938 19.2069C26.7966 19.0097 26.5292 18.8989 26.2504 18.8989C25.9715 18.8989 25.7041 19.0097 25.507 19.2069L18.9004 25.8156L16.4938 23.4069C16.3961 23.3092 16.2802 23.2318 16.1527 23.179C16.0251 23.1261 15.8884 23.0989 15.7504 23.0989C15.6123 23.0989 15.4756 23.1261 15.348 23.179C15.2205 23.2318 15.1046 23.3092 15.007 23.4069C14.9093 23.5045 14.8319 23.6204 14.7791 23.7479C14.7262 23.8755 14.699 24.0122 14.699 24.1503C14.699 24.2883 14.7262 24.425 14.7791 24.5526C14.8319 24.6801 14.9093 24.796 15.007 24.8937L18.157 28.0437C18.2545 28.1414 18.3704 28.219 18.4979 28.2719C18.6255 28.3249 18.7623 28.3521 18.9004 28.3521C19.0385 28.3521 19.1752 28.3249 19.3028 28.2719C19.4304 28.219 19.5462 28.1414 19.6438 28.0437L26.9938 20.6937Z" fill="url(#paint4_linear_101_450)" fill-opacity="0.9"/>
<defs>
<linearGradient id="paint0_linear_101_450" x1="8.40039" y1="9.46299" x2="33.6004" y2="37.813" gradientUnits="userSpaceOnUse">
<stop stop-color="#36DFF1"/>
<stop offset="1" stop-color="#0094F0"/>
</linearGradient>
<radialGradient id="paint1_radial_101_450" cx="0" cy="0" r="1" gradientUnits="userSpaceOnUse" gradientTransform="translate(21.0004 4.56369) rotate(90) scale(10.7956 9.7453)">
<stop stop-color="#0A1852"/>
<stop offset="0.97" stop-color="#0A1852" stop-opacity="0"/>
</radialGradient>
<radialGradient id="paint2_radial_101_450" cx="0" cy="0" r="1" gradientUnits="userSpaceOnUse" gradientTransform="translate(21.0004 7.85439) rotate(90) scale(4.84205 7.72735)">
<stop stop-color="#0A1852"/>
<stop offset="1" stop-color="#0A1852" stop-opacity="0"/>
</radialGradient>
<linearGradient id="paint3_linear_101_450" x1="21.0004" y1="4.2002" x2="21.0004" y2="10.5002" gradientUnits="userSpaceOnUse">
<stop stop-color="#FFE06B"/>
<stop offset="1" stop-color="#FAB500"/>
</linearGradient>
<linearGradient id="paint4_linear_101_450" x1="31.5004" y1="34.6503" x2="15.8554" y2="12.4092" gradientUnits="userSpaceOnUse">
<stop stop-color="#9DEAFF"/>
<stop offset="1" stop-color="white"/>
</linearGradient>
</defs>
</svg>
