<svg width="42" height="42" viewBox="0 0 42 42" fill="none" xmlns="http://www.w3.org/2000/svg">
<path fill-rule="evenodd" clip-rule="evenodd" d="M20.9999 40.5C24.401 40.5009 27.7433 39.6121 30.6948 37.922C33.6463 36.2319 36.1044 33.7992 37.8251 30.8655C39.5458 27.9317 40.4693 24.5989 40.5038 21.1979C40.5383 17.7969 39.6827 14.4461 38.0219 11.478L34.4999 15L28.4999 13.5L26.9999 7.5L30.5219 3.978C27.9213 2.52458 25.0222 1.68636 22.0473 1.52768C19.0723 1.369 16.1005 1.89409 13.3601 3.06264C10.6196 4.23118 8.18336 6.01211 6.23828 8.26872C4.29321 10.5253 2.89105 13.1976 2.13944 16.0804C1.38783 18.9633 1.30676 21.98 1.90244 24.899C2.49813 27.818 3.75473 30.5618 5.57579 32.9196C7.39685 35.2774 9.73395 37.1866 12.4077 38.5007C15.0814 39.8147 18.0207 40.4987 20.9999 40.5ZM34.3139 6.75C34.6339 7.05 34.9449 7.362 35.2469 7.686L34.4999 7.5L34.3139 6.75Z" fill="#D7E0FF"/>
<path d="M40.4395 22.5C40.1434 26.2215 38.7852 29.7798 36.5262 32.7521C34.2673 35.7244 31.2026 37.9858 27.6963 39.2677C24.19 40.5495 20.3894 40.7978 16.7461 39.9832C13.1027 39.1686 9.76982 37.3253 7.14328 34.6722C4.51675 32.0192 2.70701 28.6679 1.92906 25.0166C1.15111 21.3652 1.43765 17.5673 2.75464 14.0741C4.07164 10.5808 6.36373 7.53901 9.3586 5.31007C12.3535 3.08113 15.9252 1.75874 19.6495 1.5" stroke="#4147D5" stroke-linecap="round" stroke-linejoin="round"/>
<path d="M34.5 15L28.5 13.5L27 7.5L33 1.5L34.5 7.5L40.5 9L34.5 15Z" fill="white"/>
<path d="M28.4996 13.5L34.4996 15L40.4996 9L34.4996 7.5L32.9996 1.5L26.9996 7.5L28.4996 13.5ZM28.4996 13.5L20.9996 21M29.3696 24.27C28.8278 25.6644 27.947 26.9017 26.8069 27.8702C25.6667 28.8386 24.3032 29.5076 22.8395 29.8166C21.3758 30.1256 19.8582 30.0649 18.4239 29.6399C16.9896 29.215 15.6838 28.4392 14.6247 27.3828C13.5656 26.3264 12.7864 25.0226 12.3578 23.5894C11.9292 22.1562 11.8646 20.6388 12.1698 19.1743C12.475 17.7098 13.1405 16.3446 14.106 15.2019C15.0715 14.0593 16.3066 13.1753 17.6996 12.63" stroke="#4147D5" stroke-linecap="round" stroke-linejoin="round"/>
</svg>
