<svg width="45" height="45" viewBox="0 0 45 45" fill="none" xmlns="http://www.w3.org/2000/svg">
<path d="M39.5859 23.4844L38.7422 10.7578L32.9062 14.3438C30.0234 13.8516 29.25 13.8516 27 12.7266C25.6641 12.0938 23.9766 12.5156 23.1328 13.0078C21.8672 11.6719 13.6406 13.6406 12.7266 14.0625C10.2656 13.3594 6.60937 10.4766 6.60937 10.4766L5.34375 24.8906L7.03125 25.3125C7.17188 25.8047 7.59375 27 7.59375 27C6.04688 28.9688 7.875 31.2891 9.63281 30.5156C8.85938 32.4844 10.8984 34.3125 12.5156 33.0469C12.3047 34.875 14.2031 36.2109 15.6094 34.9453C14.9766 37.125 17.4375 38.7422 18.9141 36.9844C19.9687 37.6875 20.9531 38.25 21.7969 38.5313C23.2734 39.1641 24.8906 37.7578 24.6094 36C26.2969 37.9688 28.8281 36.0703 28.2656 33.8906C30.1641 35.3672 32.4844 32.9062 31.2891 30.7266C33.3984 31.9219 35.2266 28.6875 33.1875 26.5781L39.5859 23.4844Z" fill="#FED0AC"/>
<path d="M9.77344 25.5234C10.8281 26.0156 11.5313 27.6328 10.4063 29.0391L9.91406 29.6016C9.35156 30.3047 8.78906 30.5156 8.22656 30.5156C8.64844 30.7266 9.14062 30.7266 9.63281 30.5156C9.70312 30.3047 9.84375 30.0234 10.0547 29.8125L10.5469 29.25C10.8281 28.8984 11.1797 28.6172 11.4609 28.4766C12.0234 27 11.0391 25.5937 9.77344 25.5234ZM17.8594 32.4844C18.9844 32.7656 19.8281 34.2422 18.9844 35.8594L18.5625 36.4922C18.1406 37.2656 17.5781 37.6172 17.0156 37.6875C17.7891 37.8984 18.6328 37.6172 19.1953 36.5625L19.6172 35.9297C20.6016 33.9609 19.2656 32.3438 17.8594 32.4844ZM12.8672 31.9219L13.9922 30.1641C13.9219 29.1797 13.0781 28.3359 12.2344 28.2656C13.2891 28.7578 13.9922 30.375 12.8672 31.7813L12.375 32.3438C11.8125 33.0469 11.25 33.2578 10.6172 33.2578C11.1797 33.5391 11.8125 33.4688 12.4453 33.0469C12.5156 32.6953 12.6562 32.2734 12.8672 31.9219ZM15.8906 28.7578C17.0156 29.1094 17.7891 30.6562 16.8047 32.2031L15.4688 34.3125C14.9766 35.0859 14.4141 35.3672 13.8516 35.3672C14.5547 35.5781 15.4688 35.3672 16.1016 34.3828L17.4375 32.2734C18.5625 30.4453 17.2969 28.6875 15.8906 28.7578ZM25.2422 30.5156C25.3125 30.5156 26.1562 30.375 26.4375 30.375C25.3828 29.3203 23.6953 30.1641 22.7109 29.6016C23.4141 30.7969 24.8906 30.5156 25.0312 30.5156L26.7188 32.6953C28.125 34.4531 27 36.4922 25.5234 36.7031C27.0703 37.1953 28.6172 35.5781 28.125 33.8203C28.0547 33.75 25.2422 30.5156 25.2422 30.5156ZM26.9297 26.4375C26.9297 26.4375 27.9844 26.2266 28.8984 26.2266C27.8437 25.3828 26.2266 26.1563 25.1719 25.4531C25.5937 26.3672 26.5078 26.3672 26.7891 26.3672L30.0234 30.0937C31.5 31.7812 30.4453 33.8203 28.9688 34.1719C30.6562 34.6641 32.2734 32.4844 31.2188 30.5859C30.5156 30.375 26.9297 26.4375 26.9297 26.4375Z" fill="#E0A372"/>
<path d="M24.6797 34.5234C23.625 33.6797 22.1484 34.3125 21.5156 33.8906C21.8672 34.875 23.2031 34.6641 23.2734 34.6641C24.4687 36.4922 23.2031 38.3906 21.7266 38.5313C23.2031 39.1641 24.8203 37.7578 24.5391 36C24.4688 35.9297 23.4844 34.6641 23.4844 34.6641C23.625 34.5938 24.3984 34.5234 24.6797 34.5234ZM38.8125 22.2891C38.8125 22.2891 37.6172 24.75 32.9766 26.0859C32.3438 25.3125 31.0078 23.7656 29.4609 22.4297C30.4453 22.2188 30.9375 21.4453 31.7109 21.3047C31.4297 21.0234 30.4453 21.1641 29.6719 21.4453C28.2656 21.9375 25.0312 19.6875 25.0312 19.6875L22.3594 20.0391C20.4609 21.8672 16.3828 22.8516 16.1719 20.0391C16.0312 18.0703 20.3203 16.7344 21.6562 15.4688C23.3438 13.8516 24.8203 11.8125 27.5625 13.2187C29.8125 14.3437 30.7266 14.2734 33.8203 14.8359C34.875 15.0469 35.5781 15.5391 36.3516 16.5938C35.7188 15.1172 34.8047 14.4844 33.6797 14.2734L38.6016 11.9531L38.6719 10.7578L32.8359 14.0625C30.1641 13.6406 29.1797 13.6406 27 12.5859C25.5938 11.8828 24.4688 12.0938 23.5547 12.6562C21.8672 11.6719 20.8828 11.8828 20.25 12.0234C18.2812 12.6563 15.1172 12.7266 12.3047 13.8516C12.7969 13.9922 13.2891 14.1328 13.6406 14.1328C16.3828 13.2891 19.2656 13.3594 20.6016 12.8672C21.0234 12.7266 21.8672 12.7266 22.7813 13.2187C22.2188 13.7109 21.7266 14.2734 21.1641 14.8359C19.8281 16.1016 15.75 17.9297 16.0312 20.25C16.1719 21.375 17.7188 24.3281 22.8516 21.0234L25.0312 20.7422C25.0312 20.7422 29.0391 22.6406 32.7656 27C34.2422 28.6875 33.3281 30.5156 31.8516 30.9375C33.75 31.2891 35.3672 28.6172 33.5391 26.7891L37.9688 24.3984L38.8125 22.2891Z" fill="#E0A372"/>
<path d="M37.5471 11.4609L39.8674 23.4844L37.969 24.3281C36.9846 21.7266 35.5081 15.4688 35.8596 12.4453L37.5471 11.4609Z" fill="#3B946F"/>
<path d="M7.80469 26.7188C7.45313 25.875 7.24219 24.75 7.24219 24.75L5.48438 23.5547L5.34375 24.8906L6.89063 25.3125C7.10156 26.0156 7.3125 26.5781 7.59375 27L7.80469 26.7188Z" fill="#E0A372"/>
<path d="M4.28906 24.6797L8.08594 11.5312L9.84375 12.7266C10.125 14.6953 6.89063 23.6953 5.69531 25.0312L4.28906 24.6797Z" fill="#3B946F"/>
<path d="M37.4766 11.3906C36.9141 11.7422 38.9531 23.9062 39.7969 23.5547C42.4688 22.3594 43.6641 22.0078 43.6641 22.0078V7.52344C43.5938 7.52344 41.9766 8.71875 37.4766 11.3906ZM1.40625 6.32812V24.2578C1.40625 24.2578 2.67188 24.4688 4.28906 24.8203C5.20312 25.0312 8.50781 11.8125 8.29688 11.6016C5.90625 9.98438 1.40625 6.32812 1.40625 6.32812Z" fill="#47B892"/>
</svg>
