<svg width="45" height="45" viewBox="0 0 45 45" fill="none" xmlns="http://www.w3.org/2000/svg">
<path d="M15.1875 22.5C17.1269 22.5 18.9869 21.7296 20.3582 20.3582C21.7296 18.9869 22.5 17.1269 22.5 15.1875C22.5 13.2481 21.7296 11.3881 20.3582 10.0168C18.9869 8.64542 17.1269 7.875 15.1875 7.875C13.2481 7.875 11.3881 8.64542 10.0168 10.0168C8.64542 11.3881 7.875 13.2481 7.875 15.1875C7.875 17.1269 8.64542 18.9869 10.0168 20.3582C11.3881 21.7296 13.2481 22.5 15.1875 22.5ZM27.9833 34.0763C29.1758 34.5645 30.6923 34.875 32.6228 34.875C41.6228 34.875 41.6228 28.125 41.6228 28.125C41.6228 27.2303 41.2675 26.3722 40.635 25.7393C40.0026 25.1064 39.1447 24.7506 38.25 24.75H27.837C28.7213 25.821 29.2523 27.1913 29.2523 28.6875V29.4885C29.2475 29.678 29.2347 29.8671 29.214 30.0555C29.0608 31.461 28.6418 32.8251 27.9833 34.0763ZM38.25 16.875C38.25 18.3668 37.6574 19.7976 36.6025 20.8525C35.5476 21.9074 34.1168 22.5 32.625 22.5C31.1332 22.5 29.7024 21.9074 28.6475 20.8525C27.5926 19.7976 27 18.3668 27 16.875C27 15.3832 27.5926 13.9524 28.6475 12.8975C29.7024 11.8426 31.1332 11.25 32.625 11.25C34.1168 11.25 35.5476 11.8426 36.6025 12.8975C37.6574 13.9524 38.25 15.3832 38.25 16.875ZM3.375 29.25C3.375 28.0565 3.84911 26.9119 4.69302 26.068C5.53693 25.2241 6.68153 24.75 7.875 24.75H22.5C23.6935 24.75 24.8381 25.2241 25.682 26.068C26.5259 26.9119 27 28.0565 27 29.25C27 29.25 27 38.25 15.1875 38.25C3.375 38.25 3.375 29.25 3.375 29.25Z" fill="#007BFF"/>
</svg>
