<svg width="45" height="45" viewBox="0 0 45 45" fill="none" xmlns="http://www.w3.org/2000/svg">
<path d="M38.75 2.5H6.25C5.25544 2.5 4.30161 2.89509 3.59835 3.59835C2.89509 4.30161 2.5 5.25544 2.5 6.25V38.75C2.5 39.7446 2.89509 40.6984 3.59835 41.4016C4.30161 42.1049 5.25544 42.5 6.25 42.5H38.75C39.7446 42.5 40.6984 42.1049 41.4016 41.4016C42.1049 40.6984 42.5 39.7446 42.5 38.75V6.25C42.5 5.25544 42.1049 4.30161 41.4016 3.59835C40.6984 2.89509 39.7446 2.5 38.75 2.5Z" fill="#CCD6DD"/>
<path d="M38.75 1.25H6.25C4.92392 1.25 3.65215 1.77678 2.71447 2.71447C1.77678 3.65215 1.25 4.92392 1.25 6.25V38.75C1.25 40.0761 1.77678 41.3479 2.71447 42.2855C3.65215 43.2232 4.92392 43.75 6.25 43.75H38.75C40.0761 43.75 41.3479 43.2232 42.2855 42.2855C43.2232 41.3479 43.75 40.0761 43.75 38.75V6.25C43.75 4.92392 43.2232 3.65215 42.2855 2.71447C41.3479 1.77678 40.0761 1.25 38.75 1.25ZM38.75 3.75C40.1288 3.75 41.25 4.87125 41.25 6.25V11.25H33.75V3.75H38.75ZM33.75 23.75H41.25V31.25H33.75V23.75ZM33.75 21.25V13.75H41.25V21.25H33.75ZM31.25 3.75V11.25H23.75V3.75H31.25ZM23.75 13.75H31.25V21.25H23.75V13.75ZM23.75 23.75H31.25V31.25H23.75V23.75ZM21.25 3.75V11.25H13.75V3.75H21.25ZM13.75 13.75H21.25V21.25H13.75V13.75ZM13.75 23.75H21.25V31.25H13.75V23.75ZM3.75 6.25C3.75 4.87125 4.87125 3.75 6.25 3.75H11.25V11.25H3.75V6.25ZM3.75 13.75H11.25V21.25H3.75V13.75ZM3.75 23.75H11.25V31.25H3.75V23.75ZM6.25 41.25C4.87125 41.25 3.75 40.1288 3.75 38.75V33.75H11.25V41.25H6.25ZM13.75 41.25V33.75H21.25V41.25H13.75ZM23.75 41.25V33.75H31.25V41.25H23.75ZM38.75 41.25H33.75V33.75H41.25V38.75C41.25 40.1288 40.1288 41.25 38.75 41.25Z" fill="#E1E8ED"/>
<path d="M16.25 41.25H8.75V20C8.75 19.337 9.01339 18.7011 9.48223 18.2322C9.95107 17.7634 10.587 17.5 11.25 17.5H13.75C14.413 17.5 15.0489 17.7634 15.5178 18.2322C15.9866 18.7011 16.25 19.337 16.25 20V41.25Z" fill="#5C913B"/>
<path d="M36.25 41.25H28.75V11.25C28.75 10.587 29.0134 9.95107 29.4822 9.48223C29.9511 9.01339 30.587 8.75 31.25 8.75H33.75C34.413 8.75 35.0489 9.01339 35.5178 9.48223C35.9866 9.95107 36.25 10.587 36.25 11.25V41.25Z" fill="#3B94D9"/>
<path d="M26.25 41.25H18.75V28.75C18.75 28.087 19.0134 27.4511 19.4822 26.9822C19.9511 26.5134 20.587 26.25 21.25 26.25H23.75C24.413 26.25 25.0489 26.5134 25.5178 26.9822C25.9866 27.4511 26.25 28.087 26.25 28.75V41.25Z" fill="#DD2E44"/>
</svg>
