<svg width="45" height="45" viewBox="0 0 45 45" fill="none" xmlns="http://www.w3.org/2000/svg">
<g clip-path="url(#clip0_101_326)">
<path d="M27.8215 33.3281H17.0518C17.3028 33.3281 17.5053 35.7968 17.5053 38.8378C17.5053 41.8809 17.3035 44.3496 17.0518 44.3496H27.8215C27.5712 44.3496 27.368 41.8809 27.368 38.8378C27.3694 35.7968 27.5712 33.3281 27.8215 33.3281Z" fill="#BFBEBE"/>
<path d="M20.8226 33.3281H17.0518C17.3028 33.3281 17.5053 35.7968 17.5053 38.8378C17.5053 41.8809 17.3035 44.3496 17.0518 44.3496H20.8226C21.0736 44.3496 21.2761 41.8809 21.2761 38.8378C21.2761 35.7968 21.0736 33.3281 20.8226 33.3281Z" fill="#AEAEAE"/>
<path d="M44.8481 33.2648C44.8481 36.1103 42.7036 38.4159 40.0626 38.4159H4.81498C2.17123 38.4159 0.0274048 36.1103 0.0274048 33.2648V7.16479C0.0274048 4.32416 2.17123 2.01721 4.81498 2.01721H40.0626C42.7036 2.01721 44.8481 4.32206 44.8481 7.16479V33.2648Z" fill="#D1D2D2"/>
<path d="M9.09139 33.2648V7.16479C9.09139 4.32416 11.2352 2.01721 13.8783 2.01721H4.81218C2.16843 2.01721 0.0245972 4.32206 0.0245972 7.16479V33.2648C0.0245972 36.1103 2.16843 38.4159 4.81218 38.4159H13.8783C11.2352 38.4159 9.09139 36.1096 9.09139 33.2641" fill="#C6C5C5"/>
<path d="M44.848 25.9742C44.848 28.8148 42.7035 31.121 40.0625 31.121H4.81486C2.17111 31.121 0.0272827 28.8169 0.0272827 25.9742V7.14587C0.0272827 4.30033 2.17111 1.99548 4.81486 1.99548H40.0625C42.7035 1.99548 44.848 4.30033 44.848 7.14587V25.9742Z" fill="#243438"/>
<path d="M0.0253296 24.6445H44.8488V32.637H0.0253296V24.6445Z" fill="#243438"/>
<path d="M41.3086 4.39026H3.56416C3.25268 4.39026 2.99323 4.56252 2.99323 4.76995V29.3027C2.99323 29.5108 3.25268 29.6824 3.56416 29.6824H41.3086C41.4781 29.6824 41.6067 29.6465 41.7003 29.5832L41.7143 29.5692C41.7143 29.5692 41.7256 29.5607 41.7284 29.553C41.7747 29.5293 41.8137 29.4935 41.8413 29.4494C41.8689 29.4054 41.884 29.3547 41.8852 29.3027V4.77487C41.8824 4.56745 41.6201 4.39518 41.3086 4.39518" fill="#58C5E8"/>
<path d="M22.9908 20.7836C29.3021 24.565 35.4678 27.1399 41.8824 28.6973V4.76995C41.8824 4.56252 41.6201 4.39026 41.3086 4.39026H6.67268C10.2305 11.0946 16.3533 16.8074 22.9922 20.7836M23.0414 24.7992C15.4266 20.6514 7.8026 14.9062 2.99323 7.81167V29.302C2.99323 29.5101 3.25268 29.6817 3.56416 29.6817H34.3702C30.6071 28.4688 26.8545 26.879 23.0428 24.802" fill="#28A6DE"/>
<path d="M30.7416 44.1048C30.7416 44.5984 30.5039 44.9999 30.2121 44.9999H14.6661C14.3714 44.9999 14.1338 44.5984 14.1338 44.1048C14.1338 43.6105 14.3714 43.2097 14.6661 43.2097H30.2121C30.5039 43.2076 30.7416 43.6098 30.7416 44.1048Z" fill="#D1D2D2"/>
<path d="M19.6436 44.105C19.6436 43.6107 19.8812 43.21 20.173 43.21H14.4601C14.1676 43.21 13.9307 43.6107 13.9307 44.105C13.9307 44.5986 14.1683 45.0001 14.4601 45.0001H20.173C19.8812 45.0001 19.6436 44.5986 19.6436 44.105Z" fill="#C6C5C5"/>
<path d="M24.1383 34.1824C24.0693 34.1163 23.9688 34.0973 23.8317 34.1367L23.0421 34.3385C22.7955 34.4046 22.672 34.5682 22.6715 34.8293L22.6687 35.6737C22.6687 35.7961 22.6961 35.8868 22.751 35.9388C22.7743 35.9609 22.8018 35.9781 22.8319 35.9893C22.862 36.0005 22.894 36.0056 22.9261 36.0042C22.9683 36.0042 23.0076 35.995 23.0583 35.9852L23.8472 35.7841C24.0937 35.7185 24.2184 35.5537 24.2212 35.2898V34.4482C24.2193 34.3235 24.1917 34.2349 24.1383 34.1824ZM23.7192 35.1436C23.7192 35.2368 23.6749 35.2954 23.5863 35.3193L23.3065 35.3925C23.2912 35.3956 23.2756 35.3975 23.2601 35.3981C23.2371 35.3984 23.2147 35.3907 23.1968 35.3763C23.1785 35.3587 23.1665 35.3257 23.17 35.2779V34.9776C23.17 34.8843 23.2139 34.826 23.3015 34.8025L23.5849 34.7294C23.6341 34.7182 23.6695 34.7236 23.6911 34.7456C23.7117 34.7643 23.7218 34.7962 23.7213 34.8412V35.1443H23.7192V35.1436ZM22.2047 34.8257C22.2047 34.5646 22.0809 34.4011 21.8334 34.335L21.0445 34.1332C20.9081 34.0938 20.8068 34.1149 20.7415 34.1789C20.6843 34.2314 20.6559 34.3197 20.6564 34.4439L20.6592 35.2842C20.6615 35.549 20.7853 35.7138 21.0304 35.7785L21.8222 35.9803C21.869 35.9939 21.9117 36.0002 21.9501 35.9993C21.9823 36.001 22.0145 35.996 22.0446 35.9846C22.0748 35.9733 22.1022 35.9557 22.1252 35.9332C22.18 35.8811 22.2075 35.7928 22.2075 35.6681L22.2047 34.8257ZM21.6801 35.3728C21.6661 35.3873 21.6452 35.3946 21.6176 35.3946C21.6176 35.3946 21.5873 35.3918 21.5711 35.3889L21.2899 35.3158C21.2027 35.2912 21.1563 35.2336 21.1563 35.14V34.837C21.1572 34.7934 21.1671 34.7615 21.1858 34.7414C21.2074 34.7193 21.2437 34.7139 21.2948 34.7252L21.5761 34.7983C21.6633 34.8222 21.7097 34.8799 21.7097 34.9734V35.2764C21.7097 35.32 21.7097 35.3531 21.6801 35.3728ZM22.7594 36.9907C22.7735 36.9907 22.7868 36.9879 22.8058 36.9815L23.0871 36.9091C23.1752 36.888 23.2197 36.8289 23.2207 36.7319V36.4324C23.2216 36.398 23.2121 36.3641 23.1933 36.3354C23.1686 36.3114 23.13 36.3086 23.0843 36.3206L22.8002 36.393C22.7125 36.415 22.6687 36.4741 22.6687 36.5702L22.6659 36.8718C22.6664 36.915 22.6765 36.9457 22.6961 36.9639C22.7102 36.9818 22.7313 36.9907 22.7594 36.9907ZM22.1175 36.9907C22.1007 36.9906 22.084 36.9875 22.0683 36.9815L21.787 36.9091C21.6998 36.888 21.656 36.8289 21.6555 36.7319L21.6527 36.4324C21.6527 36.3881 21.664 36.3586 21.6829 36.3354C21.7047 36.3114 21.7427 36.3086 21.7891 36.3206L22.076 36.393C22.1611 36.4148 22.2075 36.4746 22.2075 36.5702V36.8718C22.2075 36.9154 22.1962 36.945 22.18 36.9639C22.1723 36.9729 22.1627 36.9799 22.1519 36.9846C22.141 36.9892 22.1292 36.9913 22.1175 36.9907Z" fill="#243438"/>
</g>
<defs>
<clipPath id="clip0_101_326">
<rect width="45" height="45" fill="white"/>
</clipPath>
</defs>
</svg>
