<svg width="45" height="45" viewBox="0 0 45 45" fill="none" xmlns="http://www.w3.org/2000/svg">
<path d="M5.625 10.7812C5.625 10.4083 5.77316 10.0506 6.03688 9.78688C6.3006 9.52316 6.65829 9.375 7.03125 9.375C12.0244 9.375 16.89 7.60688 21.6562 4.03125C21.8997 3.84869 22.1957 3.75 22.5 3.75C22.8043 3.75 23.1003 3.84869 23.3438 4.03125C28.11 7.60688 32.9756 9.375 37.9688 9.375C38.3417 9.375 38.6994 9.52316 38.9631 9.78688C39.2268 10.0506 39.375 10.4083 39.375 10.7812V20.625C39.375 30.0019 33.8288 36.8925 23.0156 41.1525C22.6843 41.2831 22.3157 41.2831 21.9844 41.1525C11.1713 36.8925 5.625 30 5.625 20.625V10.7812Z" fill="url(#paint0_radial_101_372)"/>
<path d="M5.625 10.7812C5.625 10.4083 5.77316 10.0506 6.03688 9.78688C6.3006 9.52316 6.65829 9.375 7.03125 9.375C12.0244 9.375 16.89 7.60688 21.6562 4.03125C21.8997 3.84869 22.1957 3.75 22.5 3.75C22.8043 3.75 23.1003 3.84869 23.3438 4.03125C28.11 7.60688 32.9756 9.375 37.9688 9.375C38.3417 9.375 38.6994 9.52316 38.9631 9.78688C39.2268 10.0506 39.375 10.4083 39.375 10.7812V20.625C39.375 30.0019 33.8288 36.8925 23.0156 41.1525C22.6843 41.2831 22.3157 41.2831 21.9844 41.1525C11.1713 36.8925 5.625 30 5.625 20.625V10.7812Z" fill="url(#paint1_radial_101_372)" fill-opacity="0.5"/>
<path d="M32.8125 22.5C35.5475 22.5 38.1706 23.5865 40.1045 25.5205C42.0385 27.4544 43.125 30.0775 43.125 32.8125C43.125 35.5475 42.0385 38.1706 40.1045 40.1045C38.1706 42.0385 35.5475 43.125 32.8125 43.125C30.0775 43.125 27.4544 42.0385 25.5205 40.1045C23.5865 38.1706 22.5 35.5475 22.5 32.8125C22.5 30.0775 23.5865 27.4544 25.5205 25.5205C27.4544 23.5865 30.0775 22.5 32.8125 22.5Z" fill="url(#paint2_linear_101_372)"/>
<path fill-rule="evenodd" clip-rule="evenodd" d="M39.1013 28.3987C39.1886 28.4858 39.2578 28.5893 39.3051 28.7032C39.3524 28.8171 39.3767 28.9392 39.3767 29.0625C39.3767 29.1858 39.3524 29.3079 39.3051 29.4218C39.2578 29.5357 39.1886 29.6391 39.1013 29.7262L31.6013 37.2262C31.5142 37.3135 31.4107 37.3828 31.2968 37.4301C31.1829 37.4773 31.0608 37.5016 30.9375 37.5016C30.8142 37.5016 30.6921 37.4773 30.5782 37.4301C30.4643 37.3828 30.3609 37.3135 30.2738 37.2262L26.5238 33.4762C26.3477 33.3002 26.2488 33.0614 26.2488 32.8125C26.2488 32.5635 26.3477 32.3248 26.5238 32.1487C26.6998 31.9727 26.9386 31.8738 27.1875 31.8738C27.4365 31.8738 27.6752 31.9727 27.8513 32.1487L30.9375 35.2368L37.7738 28.3987C37.8609 28.3114 37.9643 28.2421 38.0782 28.1949C38.1921 28.1476 38.3142 28.1233 38.4375 28.1233C38.5608 28.1233 38.6829 28.1476 38.7968 28.1949C38.9107 28.2421 39.0142 28.3114 39.1013 28.3987Z" fill="url(#paint3_linear_101_372)"/>
<defs>
<radialGradient id="paint0_radial_101_372" cx="0" cy="0" r="1" gradientUnits="userSpaceOnUse" gradientTransform="translate(-7.635 -17.3438) rotate(54.497) scale(89.2487 78.8396)">
<stop offset="0.338" stop-color="#0FAFFF"/>
<stop offset="0.529" stop-color="#367AF2"/>
<stop offset="0.682" stop-color="#5750E2"/>
<stop offset="0.861" stop-color="#CC23D1"/>
</radialGradient>
<radialGradient id="paint1_radial_101_372" cx="0" cy="0" r="1" gradientUnits="userSpaceOnUse" gradientTransform="translate(33.3488 35.3906) rotate(90) scale(15.2344 15.6696)">
<stop offset="0.5" stop-color="#1E1868"/>
<stop offset="1" stop-color="#1E1868" stop-opacity="0"/>
</radialGradient>
<linearGradient id="paint2_linear_101_372" x1="23.2369" y1="26.3681" x2="37.47" y2="41.1563" gradientUnits="userSpaceOnUse">
<stop stop-color="#52D17C"/>
<stop offset="1" stop-color="#22918B"/>
</linearGradient>
<linearGradient id="paint3_linear_101_372" x1="28.7119" y1="29.0812" x2="30.8438" y2="39.6187" gradientUnits="userSpaceOnUse">
<stop stop-color="white"/>
<stop offset="1" stop-color="#E3FFD9"/>
</linearGradient>
</defs>
</svg>
